<mxfile host="app.diagrams.net" modified="2024-01-25T23:20:29.077Z" agent="Mozilla/5.0 (Macintosh; Intel Mac OS X 10_15_7) AppleWebKit/605.1.15 (KHTML, like Gecko) Version/16.5 Safari/605.1.15" etag="06_PTqB8KYRGpmZ2pL4w" version="22.1.21" type="device">
  <diagram name="Page-1" id="2YBvvXClWsGukQMizWep">
    <mxGraphModel dx="1647" dy="498" grid="1" gridSize="10" guides="1" tooltips="1" connect="1" arrows="1" fold="1" page="1" pageScale="1" pageWidth="850" pageHeight="1100" math="0" shadow="0">
      <root>
        <mxCell id="0" />
        <mxCell id="1" parent="0" />
        <mxCell id="aM9ryv3xv72pqoxQDRHE-1" value="Абонент" style="shape=umlLifeline;perimeter=lifelinePerimeter;whiteSpace=wrap;html=1;container=0;dropTarget=0;collapsible=0;recursiveResize=0;outlineConnect=0;portConstraint=eastwest;newEdgeStyle={&quot;edgeStyle&quot;:&quot;elbowEdgeStyle&quot;,&quot;elbow&quot;:&quot;vertical&quot;,&quot;curved&quot;:0,&quot;rounded&quot;:0};" parent="1" vertex="1">
          <mxGeometry x="40" y="50" width="100" height="770" as="geometry" />
        </mxCell>
        <mxCell id="aM9ryv3xv72pqoxQDRHE-2" value="" style="html=1;points=[];perimeter=orthogonalPerimeter;outlineConnect=0;targetShapes=umlLifeline;portConstraint=eastwest;newEdgeStyle={&quot;edgeStyle&quot;:&quot;elbowEdgeStyle&quot;,&quot;elbow&quot;:&quot;vertical&quot;,&quot;curved&quot;:0,&quot;rounded&quot;:0};" parent="aM9ryv3xv72pqoxQDRHE-1" vertex="1">
          <mxGeometry x="45" y="70" width="10" height="40" as="geometry" />
        </mxCell>
        <mxCell id="aM9ryv3xv72pqoxQDRHE-3" value="" style="html=1;verticalAlign=bottom;startArrow=oval;endArrow=block;startSize=8;edgeStyle=elbowEdgeStyle;elbow=vertical;curved=0;rounded=0;" parent="aM9ryv3xv72pqoxQDRHE-1" target="aM9ryv3xv72pqoxQDRHE-2" edge="1">
          <mxGeometry relative="1" as="geometry">
            <mxPoint x="-150" y="70" as="sourcePoint" />
          </mxGeometry>
        </mxCell>
        <mxCell id="UCM0PQa8yqdttfqL2wAq-12" value="Подача запроса на изменение данных&#xa;договора предоставления&#xa; абонентских услуг" style="edgeLabel;html=1;align=center;verticalAlign=middle;resizable=0;points=[];" vertex="1" connectable="0" parent="aM9ryv3xv72pqoxQDRHE-3">
          <mxGeometry x="-0.4644" y="-1" relative="1" as="geometry">
            <mxPoint x="-12" y="29" as="offset" />
          </mxGeometry>
        </mxCell>
        <mxCell id="aM9ryv3xv72pqoxQDRHE-5" value="Управление ГТС" style="shape=umlLifeline;perimeter=lifelinePerimeter;whiteSpace=wrap;html=1;container=0;dropTarget=0;collapsible=0;recursiveResize=0;outlineConnect=0;portConstraint=eastwest;newEdgeStyle={&quot;edgeStyle&quot;:&quot;elbowEdgeStyle&quot;,&quot;elbow&quot;:&quot;vertical&quot;,&quot;curved&quot;:0,&quot;rounded&quot;:0};" parent="1" vertex="1">
          <mxGeometry x="310" y="40" width="100" height="780" as="geometry" />
        </mxCell>
        <mxCell id="aM9ryv3xv72pqoxQDRHE-6" value="" style="html=1;points=[];perimeter=orthogonalPerimeter;outlineConnect=0;targetShapes=umlLifeline;portConstraint=eastwest;newEdgeStyle={&quot;edgeStyle&quot;:&quot;elbowEdgeStyle&quot;,&quot;elbow&quot;:&quot;vertical&quot;,&quot;curved&quot;:0,&quot;rounded&quot;:0};" parent="aM9ryv3xv72pqoxQDRHE-5" vertex="1">
          <mxGeometry x="45" y="80" width="10" height="30" as="geometry" />
        </mxCell>
        <mxCell id="UCM0PQa8yqdttfqL2wAq-18" value="" style="html=1;points=[[0,0,0,0,5],[0,1,0,0,-5],[1,0,0,0,5],[1,1,0,0,-5]];perimeter=orthogonalPerimeter;outlineConnect=0;targetShapes=umlLifeline;portConstraint=eastwest;newEdgeStyle={&quot;curved&quot;:0,&quot;rounded&quot;:0};fontSize=16;" vertex="1" parent="aM9ryv3xv72pqoxQDRHE-5">
          <mxGeometry x="45" y="210" width="10" height="40" as="geometry" />
        </mxCell>
        <mxCell id="UCM0PQa8yqdttfqL2wAq-19" value="Обновление информации &lt;br&gt;об абоненте в базе данных" style="html=1;align=left;spacingLeft=2;endArrow=block;rounded=0;edgeStyle=orthogonalEdgeStyle;curved=0;rounded=0;fontSize=10;startSize=8;endSize=8;" edge="1" target="UCM0PQa8yqdttfqL2wAq-18" parent="aM9ryv3xv72pqoxQDRHE-5">
          <mxGeometry relative="1" as="geometry">
            <mxPoint x="50" y="158" as="sourcePoint" />
            <Array as="points">
              <mxPoint x="50" y="160" />
              <mxPoint x="80" y="160" />
              <mxPoint x="80" y="220" />
            </Array>
          </mxGeometry>
        </mxCell>
        <mxCell id="UCM0PQa8yqdttfqL2wAq-27" value="" style="html=1;points=[[0,0,0,0,5],[0,1,0,0,-5],[1,0,0,0,5],[1,1,0,0,-5]];perimeter=orthogonalPerimeter;outlineConnect=0;targetShapes=umlLifeline;portConstraint=eastwest;newEdgeStyle={&quot;curved&quot;:0,&quot;rounded&quot;:0};fontSize=16;" vertex="1" parent="aM9ryv3xv72pqoxQDRHE-5">
          <mxGeometry x="45" y="320" width="10" height="40" as="geometry" />
        </mxCell>
        <mxCell id="UCM0PQa8yqdttfqL2wAq-29" value="" style="html=1;points=[[0,0,0,0,5],[0,1,0,0,-5],[1,0,0,0,5],[1,1,0,0,-5]];perimeter=orthogonalPerimeter;outlineConnect=0;targetShapes=umlLifeline;portConstraint=eastwest;newEdgeStyle={&quot;curved&quot;:0,&quot;rounded&quot;:0};fontSize=16;" vertex="1" parent="aM9ryv3xv72pqoxQDRHE-5">
          <mxGeometry x="45" y="430" width="10" height="40" as="geometry" />
        </mxCell>
        <mxCell id="UCM0PQa8yqdttfqL2wAq-30" value="&lt;font style=&quot;font-size: 10px;&quot;&gt;Перерасчет стоимости &lt;br&gt;междугородних разговоров&lt;br&gt;для абонента на основе&lt;br&gt;условий контракта&lt;/font&gt;" style="html=1;align=left;spacingLeft=2;endArrow=block;rounded=0;edgeStyle=orthogonalEdgeStyle;curved=0;rounded=0;fontSize=10;startSize=8;endSize=8;" edge="1" parent="aM9ryv3xv72pqoxQDRHE-5" target="UCM0PQa8yqdttfqL2wAq-29">
          <mxGeometry relative="1" as="geometry">
            <mxPoint x="50" y="380" as="sourcePoint" />
            <Array as="points">
              <mxPoint x="80" y="380" />
              <mxPoint x="80" y="440" />
            </Array>
          </mxGeometry>
        </mxCell>
        <mxCell id="UCM0PQa8yqdttfqL2wAq-41" value="Оповещение об успешном &lt;br&gt;изменении персональных данных" style="html=1;verticalAlign=bottom;endArrow=open;dashed=1;endSize=8;curved=0;rounded=0;fontSize=12;" edge="1" parent="aM9ryv3xv72pqoxQDRHE-5">
          <mxGeometry x="0.0001" relative="1" as="geometry">
            <mxPoint x="45" y="720" as="sourcePoint" />
            <mxPoint x="-220" y="720" as="targetPoint" />
            <mxPoint as="offset" />
          </mxGeometry>
        </mxCell>
        <mxCell id="UCM0PQa8yqdttfqL2wAq-42" value="" style="html=1;points=[[0,0,0,0,5],[0,1,0,0,-5],[1,0,0,0,5],[1,1,0,0,-5]];perimeter=orthogonalPerimeter;outlineConnect=0;targetShapes=umlLifeline;portConstraint=eastwest;newEdgeStyle={&quot;curved&quot;:0,&quot;rounded&quot;:0};fontSize=16;" vertex="1" parent="aM9ryv3xv72pqoxQDRHE-5">
          <mxGeometry x="45" y="700" width="10" height="50" as="geometry" />
        </mxCell>
        <mxCell id="aM9ryv3xv72pqoxQDRHE-7" value="" style="html=1;verticalAlign=bottom;endArrow=block;edgeStyle=elbowEdgeStyle;elbow=vertical;curved=0;rounded=0;align=center;" parent="1" source="aM9ryv3xv72pqoxQDRHE-2" target="aM9ryv3xv72pqoxQDRHE-6" edge="1">
          <mxGeometry relative="1" as="geometry">
            <mxPoint x="195" y="130" as="sourcePoint" />
            <Array as="points">
              <mxPoint x="180" y="120" />
            </Array>
            <mxPoint as="offset" />
          </mxGeometry>
        </mxCell>
        <mxCell id="UCM0PQa8yqdttfqL2wAq-17" value="Предоставление обновленной информации вместе с запросом" style="edgeLabel;html=1;align=center;verticalAlign=middle;resizable=0;points=[];" vertex="1" connectable="0" parent="aM9ryv3xv72pqoxQDRHE-7">
          <mxGeometry x="0.31" y="1" relative="1" as="geometry">
            <mxPoint x="-51" y="-19" as="offset" />
          </mxGeometry>
        </mxCell>
        <mxCell id="UCM0PQa8yqdttfqL2wAq-20" value="alt" style="shape=umlFrame;whiteSpace=wrap;html=1;pointerEvents=0;fontSize=12;" vertex="1" parent="1">
          <mxGeometry x="-50" y="180" width="610" height="640" as="geometry" />
        </mxCell>
        <mxCell id="UCM0PQa8yqdttfqL2wAq-23" value="&lt;font style=&quot;font-size: 10px;&quot;&gt;[у абонента изменился &lt;br&gt;льготный статус]&lt;/font&gt;" style="text;html=1;align=center;verticalAlign=middle;resizable=0;points=[];autosize=1;strokeColor=none;fillColor=none;fontSize=10;" vertex="1" parent="1">
          <mxGeometry x="-60" y="210" width="150" height="40" as="geometry" />
        </mxCell>
        <mxCell id="UCM0PQa8yqdttfqL2wAq-24" value="&lt;font style=&quot;font-size: 10px;&quot;&gt;[у абонента не изменился&amp;nbsp;&lt;br&gt;льготный статус]&lt;/font&gt;" style="text;html=1;align=center;verticalAlign=middle;resizable=0;points=[];autosize=1;strokeColor=none;fillColor=none;fontSize=10;" vertex="1" parent="1">
          <mxGeometry x="-60" y="610" width="170" height="40" as="geometry" />
        </mxCell>
        <mxCell id="UCM0PQa8yqdttfqL2wAq-25" style="edgeStyle=none;curved=0;rounded=0;orthogonalLoop=1;jettySize=auto;html=1;entryX=0.001;entryY=0.508;entryDx=0;entryDy=0;entryPerimeter=0;fontSize=12;startSize=8;endSize=8;dashed=1;endArrow=none;endFill=0;" edge="1" parent="1">
          <mxGeometry relative="1" as="geometry">
            <mxPoint x="560" y="610" as="sourcePoint" />
            <mxPoint x="-47.95499999999999" y="611.32" as="targetPoint" />
          </mxGeometry>
        </mxCell>
        <mxCell id="UCM0PQa8yqdttfqL2wAq-28" value="&lt;font style=&quot;font-size: 10px;&quot;&gt;Перерасчет абонентской платы &lt;br&gt;для абонента на основе&lt;br&gt;условий контракта&lt;/font&gt;" style="html=1;align=left;spacingLeft=2;endArrow=block;rounded=0;edgeStyle=orthogonalEdgeStyle;curved=0;rounded=0;fontSize=10;startSize=8;endSize=8;" edge="1" parent="1">
          <mxGeometry x="-0.0051" relative="1" as="geometry">
            <mxPoint x="360" y="320" as="sourcePoint" />
            <Array as="points">
              <mxPoint x="390" y="320" />
              <mxPoint x="390" y="380" />
            </Array>
            <mxPoint x="365" y="380.0000000000002" as="targetPoint" />
            <mxPoint as="offset" />
          </mxGeometry>
        </mxCell>
        <mxCell id="UCM0PQa8yqdttfqL2wAq-37" value="" style="html=1;points=[[0,0,0,0,5],[0,1,0,0,-5],[1,0,0,0,5],[1,1,0,0,-5]];perimeter=orthogonalPerimeter;outlineConnect=0;targetShapes=umlLifeline;portConstraint=eastwest;newEdgeStyle={&quot;curved&quot;:0,&quot;rounded&quot;:0};fontSize=16;" vertex="1" parent="1">
          <mxGeometry x="355" y="672" width="10" height="40" as="geometry" />
        </mxCell>
        <mxCell id="UCM0PQa8yqdttfqL2wAq-38" value="Обновление информации &lt;br&gt;об абоненте в базе данных" style="html=1;align=left;spacingLeft=2;endArrow=block;rounded=0;edgeStyle=orthogonalEdgeStyle;curved=0;rounded=0;fontSize=10;startSize=8;endSize=8;" edge="1" parent="1" target="UCM0PQa8yqdttfqL2wAq-37">
          <mxGeometry relative="1" as="geometry">
            <mxPoint x="360" y="620" as="sourcePoint" />
            <Array as="points">
              <mxPoint x="360" y="622" />
              <mxPoint x="390" y="622" />
              <mxPoint x="390" y="682" />
            </Array>
          </mxGeometry>
        </mxCell>
        <mxCell id="UCM0PQa8yqdttfqL2wAq-39" value="Оповещение об успешном &lt;br&gt;изменении персональных данных&lt;br&gt;&amp;nbsp;и передача новых данных оплаты" style="html=1;verticalAlign=bottom;endArrow=open;dashed=1;endSize=8;curved=0;rounded=0;fontSize=12;" edge="1" parent="1" source="UCM0PQa8yqdttfqL2wAq-40" target="aM9ryv3xv72pqoxQDRHE-1">
          <mxGeometry x="-0.0013" relative="1" as="geometry">
            <mxPoint x="470" y="550" as="sourcePoint" />
            <mxPoint x="390" y="550" as="targetPoint" />
            <mxPoint as="offset" />
          </mxGeometry>
        </mxCell>
        <mxCell id="UCM0PQa8yqdttfqL2wAq-40" value="" style="html=1;points=[[0,0,0,0,5],[0,1,0,0,-5],[1,0,0,0,5],[1,1,0,0,-5]];perimeter=orthogonalPerimeter;outlineConnect=0;targetShapes=umlLifeline;portConstraint=eastwest;newEdgeStyle={&quot;curved&quot;:0,&quot;rounded&quot;:0};fontSize=16;" vertex="1" parent="1">
          <mxGeometry x="355" y="530" width="10" height="50" as="geometry" />
        </mxCell>
      </root>
    </mxGraphModel>
  </diagram>
</mxfile>
